<?xml version="1.0" encoding="UTF-8" standalone="no"?>
<svg
   class="s-a4FWFLtJlqiE"
   width="244px"
   height="244px"
   x="0px"
   y="0px"
   viewBox="0 0 244 145"
   version="1.1"
   style="transform: translate(0,0)"
   id="svg70"
   sodipodi:docname="barcode.svg"
   inkscape:version="1.2.2 (b0a8486541, 2022-12-01)"
   xmlns:inkscape="http://www.inkscape.org/namespaces/inkscape"
   xmlns:sodipodi="http://sodipodi.sourceforge.net/DTD/sodipodi-0.dtd"
   xmlns="http://www.w3.org/2000/svg"
   xmlns:svg="http://www.w3.org/2000/svg">
  <defs
     id="defs74" />
  <sodipodi:namedview
     id="namedview72"
     pagecolor="#ffffff"
     bordercolor="#000000"
     borderopacity="0.25"
     inkscape:showpageshadow="2"
     inkscape:pageopacity="0.0"
     inkscape:pagecheckerboard="0"
     inkscape:deskcolor="#d1d1d1"
     showgrid="false"
     inkscape:zoom="2.5661338"
     inkscape:cx="123.72698"
     inkscape:cy="87.875386"
     inkscape:window-width="1366"
     inkscape:window-height="744"
     inkscape:window-x="0"
     inkscape:window-y="0"
     inkscape:window-maximized="1"
     inkscape:current-layer="svg70" />
  <rect
     x="0"
     y="0"
     width="244"
     height="145"
     style="fill:#ffffff;"
     id="rect2" />
  <rect
     style="fill:#ffffff;stroke-width:102.039"
     id="rect872"
     width="243.99644"
     height="243.99802"
     x="0.0040435269"
     y="-49.496109" />
  <g
     transform="matrix(0.81755325,0,0,1.8312719,30.438584,-19.058966)"
     style="fill:#000000"
     id="g68">
    <rect
       x="0"
       y="0"
       width="4"
       height="100"
       id="rect4" />
    <rect
       x="6"
       y="0"
       width="2"
       height="100"
       id="rect6" />
    <rect
       x="12"
       y="0"
       width="2"
       height="100"
       id="rect8" />
    <rect
       x="22"
       y="0"
       width="2"
       height="100"
       id="rect10" />
    <rect
       x="30"
       y="0"
       width="2"
       height="100"
       id="rect12" />
    <rect
       x="34"
       y="0"
       width="4"
       height="100"
       id="rect14" />
    <rect
       x="44"
       y="0"
       width="2"
       height="100"
       id="rect16" />
    <rect
       x="50"
       y="0"
       width="2"
       height="100"
       id="rect18" />
    <rect
       x="54"
       y="0"
       width="4"
       height="100"
       id="rect20" />
    <rect
       x="66"
       y="0"
       width="2"
       height="100"
       id="rect22" />
    <rect
       x="72"
       y="0"
       width="2"
       height="100"
       id="rect24" />
    <rect
       x="78"
       y="0"
       width="8"
       height="100"
       id="rect26" />
    <rect
       x="88"
       y="0"
       width="2"
       height="100"
       id="rect28" />
    <rect
       x="96"
       y="0"
       width="2"
       height="100"
       id="rect30" />
    <rect
       x="104"
       y="0"
       width="4"
       height="100"
       id="rect32" />
    <rect
       x="110"
       y="0"
       width="2"
       height="100"
       id="rect34" />
    <rect
       x="118"
       y="0"
       width="8"
       height="100"
       id="rect36" />
    <rect
       x="128"
       y="0"
       width="2"
       height="100"
       id="rect38" />
    <rect
       x="132"
       y="0"
       width="2"
       height="100"
       id="rect40" />
    <rect
       x="142"
       y="0"
       width="2"
       height="100"
       id="rect42" />
    <rect
       x="148"
       y="0"
       width="4"
       height="100"
       id="rect44" />
    <rect
       x="154"
       y="0"
       width="2"
       height="100"
       id="rect46" />
    <rect
       x="158"
       y="0"
       width="4"
       height="100"
       id="rect48" />
    <rect
       x="166"
       y="0"
       width="2"
       height="100"
       id="rect50" />
    <rect
       x="176"
       y="0"
       width="8"
       height="100"
       id="rect52" />
    <rect
       x="186"
       y="0"
       width="2"
       height="100"
       id="rect54" />
    <rect
       x="192"
       y="0"
       width="2"
       height="100"
       id="rect56" />
    <rect
       x="198"
       y="0"
       width="4"
       height="100"
       id="rect58" />
    <rect
       x="208"
       y="0"
       width="6"
       height="100"
       id="rect60" />
    <rect
       x="216"
       y="0"
       width="2"
       height="100"
       id="rect62" />
    <rect
       x="220"
       y="0"
       width="4"
       height="100"
       id="rect64" />
    <text
       style="font-style:normal;font-variant:normal;font-weight:bold;font-stretch:normal;font-size:20px;line-height:normal;font-family:monospace"
       text-anchor="middle"
       x="112"
       y="125"
       id="text66" />
  </g>
</svg>
