<?xml version="1.0" encoding="UTF-8" standalone="no"?>
<svg
   id="Layer_1"
   height="512"
   viewBox="0 0 24 24"
   width="512"
   data-name="Layer 1"
   version="1.1"
   sodipodi:docname="list-check.svg"
   inkscape:version="1.2.2 (b0a8486541, 2022-12-01)"
   xmlns:inkscape="http://www.inkscape.org/namespaces/inkscape"
   xmlns:sodipodi="http://sodipodi.sourceforge.net/DTD/sodipodi-0.dtd"
   xmlns="http://www.w3.org/2000/svg"
   xmlns:svg="http://www.w3.org/2000/svg">
  <defs
     id="defs7" />
  <sodipodi:namedview
     id="namedview5"
     pagecolor="#ffffff"
     bordercolor="#000000"
     borderopacity="0.25"
     inkscape:showpageshadow="2"
     inkscape:pageopacity="0.0"
     inkscape:pagecheckerboard="0"
     inkscape:deskcolor="#d1d1d1"
     showgrid="false"
     inkscape:zoom="0.6397007"
     inkscape:cx="588.55649"
     inkscape:cy="336.87629"
     inkscape:window-width="1366"
     inkscape:window-height="744"
     inkscape:window-x="0"
     inkscape:window-y="0"
     inkscape:window-maximized="1"
     inkscape:current-layer="Layer_1" />
  <rect
     style="fill:#000000;stroke-width:0.771371"
     id="rect896"
     width="23.999729"
     height="23.999804"
     x="0.00025546923"
     y="0.00025985949" />
  <path
     d="M 6.123818,8.0095241 A 2.2172385,2.2172385 0 0 1 4.5460248,7.3559517 L 3.3979978,6.3343267 A 0.74412236,0.74412236 0 0 1 4.3883941,5.2234769 L 5.566906,6.2748435 a 0.74354076,0.74354076 0 0 0 1.0825953,0.029742 L 9.3292222,3.7534967 A 0.74354076,0.74354076 0 0 1 10.353821,4.8301438 L 7.6852536,7.3685919 A 2.2038548,2.2038548 0 0 1 6.123818,8.0095241 Z M 20.994633,6.5224426 A 0.74354076,0.74354076 0 0 0 20.251092,5.7789018 h -7.435407 a 0.74354076,0.74354076 0 0 0 0,1.4870815 h 7.435407 A 0.74354076,0.74354076 0 0 0 20.994633,6.5224426 Z M 7.6852536,13.316917 10.353821,10.77847 A 0.74354076,0.74354076 0 1 0 9.3292222,9.7018228 L 6.6524755,12.252911 a 0.76064219,0.76064219 0 0 1 -1.0513666,0 L 4.4188793,11.074399 a 0.74354076,0.74354076 0 0 0 -1.0513667,1.051366 l 1.1785122,1.178512 a 2.2306223,2.2306223 0 0 0 3.142203,0.01264 z M 20.994633,12.470768 a 0.74354076,0.74354076 0 0 0 -0.743541,-0.743541 h -7.435407 a 0.743541,0.743541 0 0 0 0,1.487082 h 7.435407 a 0.74354076,0.74354076 0 0 0 0.743541,-0.743541 z M 7.6852536,19.265244 10.350847,16.726795 A 0.74354076,0.74354076 0 1 0 9.3262481,15.650148 L 6.6495013,18.201237 A 0.74354076,0.74354076 0 0 1 5.566906,18.171495 L 4.3883941,17.120128 a 0.74412239,0.74412239 0 0 0 -0.9903963,1.11085 l 1.148027,1.021625 a 2.2306223,2.2306223 0 0 0 3.142203,0.01264 z m 13.3093794,-0.84615 a 0.74354076,0.74354076 0 0 0 -0.743541,-0.743541 h -7.435407 a 0.743541,0.743541 0 0 0 0,1.487082 h 7.435407 a 0.74354076,0.74354076 0 0 0 0.743541,-0.743541 z"
     id="path2"
     style="fill:#ffffff;stroke-width:0.743541" />
</svg>
