<?xml version="1.0" encoding="UTF-8" standalone="no"?>
<svg
   id="Layer_1"
   data-name="Layer 1"
   viewBox="0 0 24 24"
   width="512"
   height="512"
   version="1.1"
   sodipodi:docname="square-1.svg"
   inkscape:version="1.2.2 (b0a8486541, 2022-12-01)"
   xmlns:inkscape="http://www.inkscape.org/namespaces/inkscape"
   xmlns:sodipodi="http://sodipodi.sourceforge.net/DTD/sodipodi-0.dtd"
   xmlns="http://www.w3.org/2000/svg"
   xmlns:svg="http://www.w3.org/2000/svg">
  <defs
     id="defs7" />
  <sodipodi:namedview
     id="namedview5"
     pagecolor="#ffffff"
     bordercolor="#000000"
     borderopacity="0.25"
     inkscape:showpageshadow="2"
     inkscape:pageopacity="0.0"
     inkscape:pagecheckerboard="0"
     inkscape:deskcolor="#d1d1d1"
     showgrid="false"
     inkscape:zoom="0.76097258"
     inkscape:cx="192.51679"
     inkscape:cy="316.04293"
     inkscape:window-width="1366"
     inkscape:window-height="744"
     inkscape:window-x="0"
     inkscape:window-y="0"
     inkscape:window-maximized="1"
     inkscape:current-layer="Layer_1" />
  <rect
     style="fill:#ffffff;stroke-width:0.320246"
     id="rect893"
     width="4.4326892"
     height="12.054932"
     x="8.6581516"
     y="6.081645" />
  <path
     d="m 19.032362,0.01230919 h -14 c -2.757,0 -5,2.24300001 -5,5.00000011 V 19.012309 c 0,2.757 2.243,5 5,5 h 14 c 2.757,0 5,-2.243 5,-5 V 5.0123093 c 0,-2.7570001 -2.243,-5.00000011 -5,-5.00000011 z m -6,16.99999981 c 0,0.552 -0.448,1 -1,1 -0.552,0 -1,-0.448 -1,-1 v -7.586 l -0.737,0.737 c -0.391,0.391 -1.023,0.391 -1.414,0 -0.391,-0.391 -0.391,-1.023 0,-1.414 l 2.444,-2.444 c 0.286,-0.286 0.714,-0.3719995 1.09,-0.217 0.374,0.155 0.617,0.52 0.617,0.924 z"
     id="path2"
     style="fill:#000000" />
</svg>
